<?xml version="1.0" standalone="no"?>
<!DOCTYPE svg PUBLIC "-//W3C//DTD SVG 20010904//EN"
 "http://www.w3.org/TR/2001/REC-SVG-20010904/DTD/svg10.dtd">
<svg version="1.0" xmlns="http://www.w3.org/2000/svg"
 width="2000.000000pt" height="2000.000000pt" viewBox="0 0 2000.000000 2000.000000"
 preserveAspectRatio="xMidYMid meet">

<g transform="translate(0.000000,2000.000000) scale(0.100000,-0.100000)"
fill="#000000" stroke="none">
<path d="M16565 16743 c-16 -2 -1054 -119 -2305 -259 -1251 -140 -2754 -308
-3340 -374 -586 -66 -1594 -179 -2240 -251 -646 -72 -1178 -134 -1181 -138 -3
-3 -43 -789 -88 -1746 -45 -957 -83 -1769 -86 -1805 -2 -36 -7 -128 -10 -205
-3 -77 -7 -174 -10 -215 -2 -41 -7 -131 -10 -200 -39 -851 -246 -5134 -248
-5136 -2 -2 -64 27 -138 64 -74 38 -181 85 -239 106 -818 294 -1920 175 -2785
-300 -985 -541 -1451 -1406 -1135 -2109 81 -180 254 -384 441 -518 119 -85
378 -214 534 -266 530 -174 1172 -185 1805 -31 641 157 1205 461 1610 869 305
307 485 638 530 970 5 42 82 1590 170 3441 89 1851 164 3368 168 3371 4 3 642
77 1417 163 1429 160 2220 248 3180 356 292 33 809 91 1150 129 341 38 930
104 1308 146 378 43 691 75 694 72 3 -4 -51 -1198 -121 -2654 -69 -1456 -126
-2669 -126 -2695 0 -27 -2 -48 -5 -48 -3 0 -56 27 -118 59 -571 303 -1368 364
-2158 166 -623 -156 -1190 -463 -1580 -855 -288 -290 -473 -619 -525 -935 -24
-147 -15 -367 20 -495 32 -115 117 -290 188 -385 281 -376 818 -632 1457 -695
151 -15 514 -12 676 5 1344 142 2497 966 2655 1897 5 29 32 521 59 1093 28
572 53 1090 56 1150 3 61 7 155 10 210 3 55 7 147 10 205 3 58 10 202 15 320
62 1309 351 7359 356 7433 7 107 12 100 -61 90z m-708 -1895 c-15 -326 -31
-596 -35 -599 -4 -4 -1010 -136 -2237 -293 -1226 -158 -2804 -361 -3505 -452
-1898 -244 -2009 -258 -2014 -253 -6 5 49 1188 55 1193 2 1 1131 148 2509 325
1378 177 3106 400 3840 495 734 96 1353 174 1375 175 l40 1 -28 -592z"/>
</g>
</svg>
